<svg xmlns="http://www.w3.org/2000/svg" xmlns:xlink="http://www.w3.org/1999/xlink">

<symbol id="external-link" viewBox="0 0 1024 1024"><g id="SVGRepo_bgCarrier" stroke-width="0"></g><g id="SVGRepo_tracerCarrier" stroke-linecap="round" stroke-linejoin="round"></g><g id="SVGRepo_iconCarrier"><path d="M960 704c-35.346 0-64 28.654-64 64v64c0 35.346-28.654 64-64 64H192c-35.346 0-64-28.654-64-64V192c0-35.346 28.654-64 64-64h64c35.346 0 64-28.654 64-64S291.346 0 256 0h-64C85.961 0 0 85.961 0 192v640c0 106.039 85.961 192 192 192h640c106.039 0 192-85.961 192-192v-64c0-35.346-28.654-64-64-64z"></path><path d="M1023.876 51.52c0-1.92 0-3.84-1.6-5.44a63.957 63.957 0 00-1.92-6.4 63.973 63.973 0 00-3.2-6.4s0-3.2-2.56-4.8a63.989 63.989 0 00-17.6-17.6L991.876 8l-6.08-3.2-6.72-1.92h-5.44A64.028 64.028 0 00959.876 0h-384c-35.346 0-64 28.654-64 64s28.654 64 64 64h229.44l-370.56 370.88c-25.007 25.007-25.007 65.553 0 90.56s65.553 25.007 90.56 0l370.56-370.88V448c0 35.346 28.654 64 64 64s64-28.654 64-64V64c.407-4.15.407-8.33 0-12.48z"></path></g></symbol>

<symbol id="caret" viewBox="0 0 24 24" fill="none" xmlns="http://www.w3.org/2000/svg"><g id="SVGRepo_bgCarrier" stroke-width="0"></g><g id="SVGRepo_tracerCarrier" stroke-linecap="round" stroke-linejoin="round"></g><g id="SVGRepo_iconCarrier"> <path fill-rule="evenodd" clip-rule="evenodd" d="M16.5303 8.96967C16.8232 9.26256 16.8232 9.73744 16.5303 10.0303L12.5303 14.0303C12.2374 14.3232 11.7626 14.3232 11.4697 14.0303L7.46967 10.0303C7.17678 9.73744 7.17678 9.26256 7.46967 8.96967C7.76256 8.67678 8.23744 8.67678 8.53033 8.96967L12 12.4393L15.4697 8.96967C15.7626 8.67678 16.2374 8.67678 16.5303 8.96967Z" fill="#000000"></path> </g></symbol>

</svg>